<?xml version="1.0" encoding="utf-8"?>
<svg version="1.1" xmlns:xlink="http://www.w3.org/1999/xlink" width="30px" height="20px" xmlns="http://www.w3.org/2000/svg">
  <g transform="matrix(1 0 0 1 -435 -25 )">
    <path d="M 29.443359375 0.6597222222222232  C 29.814453125000004 1.099537037037035  30 1.6203703703703654  30 2.222222222222223  C 30 2.824074074074072  29.814453125000004 3.3449074074074048  29.443359375 3.784722222222223  L 16.318359375 19.34027777777778  C 15.947265625000002 19.780092592592595  15.507812500000002 20  15 20  C 14.492187500000002 20  14.052734375000002 19.780092592592595  13.681640625 19.34027777777778  L 0.556640625 3.784722222222223  C 0.185546875 3.3449074074074048  0 2.824074074074072  0 2.222222222222223  C 0 1.6203703703703654  0.185546875 1.099537037037035  0.556640625 0.6597222222222232  C 0.927734375 0.21990740740740478  1.3671875000000002 0  1.875 0  L 28.125 0  C 28.6328125 0  29.072265625 0.21990740740740478  29.443359375 0.6597222222222232  Z " fill-rule="nonzero" fill="#000000" stroke="none" transform="matrix(1 0 0 1 435 25 )" />
  </g>
</svg>