<?xml version="1.0" encoding="utf-8"?>
<svg version="1.1" xmlns:xlink="http://www.w3.org/1999/xlink" width="37px" height="35px" xmlns="http://www.w3.org/2000/svg">
  <g transform="matrix(1 0 0 1 -778 -1121 )">
    <path d="M 22.877232142857142 26.26953125  C 23.758184523809522 26.738281249999996  24.315662202380953 26.490885416666668  24.54966517857143 25.52734375  L 27.58482142857143 11.992187500000002  C 27.708705357142858 11.419270833333329  27.636439732142858 11.009114583333329  27.36802455357143 10.761718750000002  C 27.099609375 10.514322916666666  26.745163690476193 10.468750000000002  26.3046875 10.625000000000002  L 8.465401785714285 17.12890625  C 8.066220238095239 17.272135416666664  7.794363839285714 17.434895833333332  7.649832589285714 17.6171875  C 7.505301339285714 17.799479166666664  7.488095238095238 17.972005208333336  7.598214285714286 18.134765625  C 7.708333333333334 18.297526041666664  7.928571428571428 18.424479166666668  8.258928571428571 18.515625000000004  L 12.821986607142856 19.86328125  L 23.4140625 13.5546875  C 23.703125 13.372395833333332  23.9233630952381 13.333333333333329  24.07477678571429 13.437499999999998  C 24.171130952380953 13.502604166666666  24.143601190476193 13.600260416666664  23.9921875 13.730468749999998  L 15.423549107142856 21.0546875  L 15.093191964285715 25.507812499999996  C 15.409784226190476 25.507812499999996  15.71949404761905 25.364583333333332  16.02232142857143 25.078125000000004  L 18.252232142857142 23.046874999999996  L 22.877232142857142 26.26953125  Z M 35.53404017857143 10.703124999999998  C 36.51134672619048 12.86458333333333  37 15.130208333333332  37 17.5  C 37 19.869791666666664  36.51134672619048 22.135416666666664  35.53404017857143 24.296875  C 34.55673363095239 26.458333333333332  33.24218750000001 28.3203125  31.59040178571429 29.882812499999996  C 29.93861607142857 31.4453125  27.9702380952381 32.688802083333336  25.685267857142858 33.61328125  C 23.40029761904762 34.537760416666664  21.005208333333336 35  18.5 35  C 15.994791666666668 35  13.599702380952381 34.537760416666664  11.314732142857144 33.61328125  C 9.029761904761905 32.688802083333336  7.061383928571428 31.4453125  5.409598214285714 29.882812499999996  C 3.7578125 28.3203125  2.443266369047619 26.458333333333332  1.4659598214285714 24.296875  C 0.4886532738095237 22.135416666666664  0 19.869791666666664  0 17.5  C 0 15.130208333333332  0.4886532738095237 12.86458333333333  1.4659598214285714 10.703124999999998  C 2.443266369047619 8.541666666666664  3.7578125 6.679687500000001  5.409598214285714 5.117187499999998  C 7.061383928571428 3.5546875  9.029761904761905 2.3111979166666656  11.314732142857144 1.3867187499999996  C 13.599702380952381 0.46223958333333315  15.994791666666668 0  18.5 0  C 21.005208333333336 0  23.40029761904762 0.46223958333333315  25.685267857142858 1.3867187499999996  C 27.9702380952381 2.3111979166666656  29.93861607142857 3.5546875  31.59040178571429 5.117187499999998  C 33.24218750000001 6.679687500000001  34.55673363095239 8.541666666666664  35.53404017857143 10.703124999999998  Z " fill-rule="nonzero" fill="#000000" stroke="none" transform="matrix(1 0 0 1 778 1121 )" />
  </g>
</svg>