<?xml version="1.0" encoding="utf-8"?>
<svg version="1.1" xmlns:xlink="http://www.w3.org/1999/xlink" width="37px" height="20px" xmlns="http://www.w3.org/2000/svg">
  <g transform="matrix(1 0 0 1 -835 -1129 )">
    <path d="M 36.82665278500781 1.276207839562442  L 36.9422175950026 1.4585232452142205  C 37.23754988721153 2.2364023093284713  36.274509803921575 4.023093284715891  34.05309734513274 6.81859617137648  C 33.74492451847996 7.207535703433605  33.327607149054316 7.724096019446975  32.8011452368558 8.368277119416591  C 32.287523859101164 8.988149498632634  31.934409161894852 9.4257064721969  31.741801145236856 9.680948040109389  C 31.549193128578867 9.936189608021877  31.353374978309912 10.23701002734731  31.154346694429986 10.583409298085689  C 30.955318410550063 10.929808568824066  30.878275203886865 11.185050136736553  30.923217074440394 11.349134001823153  C 30.96815894499393 11.513217866909752  31.05162241887906 11.7228805834093  31.173607496095784 11.978122151321786  C 31.29559257331251 12.233363719234273  31.504251258025334 12.494682467335156  31.799583550234253 12.76207839562443  C 32.09491584244317 13.029474323913702  32.460871074093355 13.351564873898509  32.8974492451848 13.72835004557885  C 32.948811382960265 13.752658766332422  32.98091271906993 13.77696748708599  32.993753253513795 13.80127620783956  C 34.80426861009891 15.393497417198418  36.03053964948811 16.736554238833182  36.67256637168141 17.830446672743847  C 36.711087975013015 17.89121847462777  36.75281971195558 17.96718322698268  36.79776158250911 18.05834092980857  C 36.84270345306264 18.149498632634458  36.88764532361617 18.310543907626858  36.9325871941697 18.54147675478578  C 36.97752906472324 18.772409601944698  36.97431893111227 18.979033728350046  36.9229567933368 19.161349134001824  C 36.87159465556134 19.3436645396536  36.711087975013015 19.510786994834397  36.44143675169183 19.66271649954421  C 36.17178552837064 19.814646004254023  35.79298976227659 19.890610756608933  35.30504945340968 19.890610756608933  L 30.374284226965123 19.963536918869643  C 30.066111400312337 20.024308720753567  29.70657643588409 19.99392281981161  29.295679333680376 19.872379216043758  C 28.884782231476663 19.750835612275903  28.550928335936145 19.617137648131266  28.294117647058822 19.471285323609845  L 27.90890161374284 19.252506836827713  C 27.52368558042686 18.99726526891522  27.07426687489155 18.6083257368581  26.56064549713691 18.085688240656335  C 26.047024119382268 17.56305074445457  25.607235814679854 17.092069279854147  25.24128058302967 16.67274384685506  C 24.87532535137949 16.25341841385597  24.483689050841576 15.900941962929199  24.06637168141593 15.61531449407475  C 23.649054311990287 15.329687025220299  23.286309213951068 15.23549073230021  22.97813638729828 15.332725615314494  C 22.939614783966682 15.344879975691281  22.888252646191223 15.366150106350652  22.82404997397189 15.396536007292616  C 22.75984730175256 15.426921908234576  22.650702758979698 15.515041020966272  22.496616345653305 15.660893345487693  C 22.34252993232691 15.806745670009118  22.204494187055353 15.986022485566696  22.082509109838625 16.19872379216044  C 21.960524032621898 16.41142509875418  21.851379489849037 16.72743846855059  21.75507548152004 17.146763901549683  C 21.65877147319105 17.56608933454877  21.617039736248483 18.03707079914919  21.62988027069235 18.559708295350955  C 21.62988027069235 18.742023701002736  21.607409335415586 18.90914615618353  21.56246746486205 19.061075660893344  C 21.51752559430852 19.213005165603157  21.469373590144023 19.325432999088424  21.418011452368557 19.398359161349134  L 21.340968245705362 19.489516864175023  C 21.109838625715774 19.72044971133394  20.769564462953326 19.85414767547858  20.32014575741801 19.890610756608933  L 18.10515356585112 19.890610756608933  C 17.19347562033663 19.939228198116076  16.25611660593441 19.838954725007596  15.293076522644457 19.589790337283503  C 14.330036439354503 19.340625949559403  13.485771299670311 19.0185353995746  12.760281103591879 18.623518687329078  C 12.03479090751345 18.22850197508356  11.373503383654345 17.82740808264965  10.776418532014576 17.420237010027346  C 10.179333680374805 17.013065937405045  9.726704841228527 16.66362807657247  9.418532014575742 16.371923427529627  L 8.937011972930765 15.93436645396536  C 8.808606628492106 15.812822850197508  8.632049279888948 15.63050744454573  8.40733992712129 15.387420237010028  C 8.182630574353636 15.144333029474321  7.723581467985425 14.591309632330596  7.030192608016659 13.72835004557885  C 6.336803748047892 12.865390458827102  5.6562554225229915 11.947736250379823  4.988547631441958 10.975387420237011  C 4.320839840360923 10.003038590094196  3.534357105674128 8.72075357034336  2.6290994273815724 7.128532360984503  C 1.723841749089016 5.536311151625646  0.8859968766267569 3.883318140382863  0.11556480999479438 2.169553327256153  C 0.038521603331598125 1.9750835612275885  0 1.810999696140989  0 1.6773017319963546  C 0 1.5436037678517156  0.019260801665799063 1.4463688848374345  0.05778240499739719 1.3855970829535091  L 0.13482561166059343 1.276207839562442  C 0.3274336283185841 1.0452749924035243  0.6933888599687663 0.9298085688240665  1.23269130661114 0.9298085688240665  L 6.510150963040084 0.8933454876937108  C 6.664237376366476 0.9176542084472783  6.811903522470936 0.9571558796718316  6.953149401353462 1.0118505013673662  C 7.094395280235989 1.0665451230628986  7.197119555786917 1.1182011546642334  7.2613222280062475 1.1668185961713773  L 7.357626236335242 1.2215132178669097  C 7.563074787437099 1.3552111820115442  7.717161200763491 1.5496809480401086  7.819885476314419 1.8049225159525983  C 8.076696165191741 2.4126405347918545  8.37202845740066 3.041628684290487  8.705882352941176 3.6918869644484964  C 9.039736248481695 4.342145244606499  9.302967204580948 4.837435429960497  9.495575221238939 5.177757520510484  L 9.803748047891723 5.706472196900638  C 10.17612354676384 6.435733819507748  10.535658511192088 7.067760559100577  10.882352941176471 7.602552415679124  C 11.229047371160853 8.137344272257671  11.540430331424608 8.553631115162563  11.816501821967726 8.851412944393802  C 12.092573312510845 9.149194773625036  12.359014402221067 9.383166210878152  12.615825091098385 9.553327256153146  C 12.872635779975708 9.723488301428135  13.090924865521432 9.808568824065633  13.270692347735555 9.808568824065633  C 13.45045982994968 9.808568824065633  13.623807044941872 9.77818292312367  13.790733992712129 9.717411121239746  C 13.81641506159986 9.705256760862959  13.848516397709526 9.674870859920997  13.887038001041125 9.626253418413857  C 13.925559604372722 9.577635976906713  14.002602811035919 9.443938012762079  14.118167621030713 9.225159525979944  C 14.233732431025507 9.006381039197812  14.320406038521602 8.72075357034336  14.378188443518999 8.368277119416591  C 14.435970848516398 8.01580066848982  14.496963387124762 7.52354907323002  14.56116605934409 6.891522333637193  C 14.625368731563423 6.2594955940443615  14.625368731563423 5.49984807049529  14.56116605934409 4.612579762989972  C 14.53548499045636 4.126405347918565  14.477702585458964 3.682771194165908  14.3878188443519 3.2816773017319956  C 14.297935103244837 2.8805834092980853  14.208051362137777 2.601033120632026  14.118167621030713 2.4430264357338194  L 14.002602811035919 2.2242479489516853  C 13.681589449939269 1.810999696140989  13.135866736074961 1.5496809480401064  12.365434669443 1.4402917046490438  C 12.19850772167274 1.4159829838954718  12.230609057782404 1.270130659374047  12.461738677771994 1.0027347310847756  C 12.667187228873852 0.7718018839258578  12.911157383307305 0.5894864782740794  13.193649141072358 0.4557885141294449  C 13.87419746659726 0.1397751443330275  15.40864133263925 -0.006077180188395204  17.796980739198332 0.01823154056517673  C 18.84990456359535 0.030385900941960475  19.71664063855631 0.10938924339106704  20.39718896408121 0.25524156791248753  C 20.65399965295853 0.3160133697964129  20.869078604893286 0.39805530233971265  21.04242581988548 0.5013673655423889  C 21.215773034877667 0.6046794287450585  21.3473885129273 0.7505317532664812  21.437272254034358 0.9389243391066548  C 21.52715599514142 1.127316924946824  21.594568800971718 1.3217866909753884  21.639510671525247 1.5223336371923435  C 21.684452542078784 1.7228805834092964  21.70692347735554 1.9993922819811583  21.70692347735554 2.3518687329079313  C 21.70692347735554 2.7043451838347  21.70050321013361 3.038590094196292  21.687662675689744 3.354603463992707  C 21.674822141245883 3.67061683378912  21.65877147319105 4.099058037070797  21.639510671525247 4.63992707383774  C 21.62024986985945 5.18079611060468  21.61061946902655 5.682163476147066  21.61061946902655 6.144029170464904  C 21.61061946902655 6.277727134609538  21.60419920180462 6.532968702522028  21.59135866736075 6.909753874202371  C 21.578518132916884 7.2865390458827095  21.57530799930592 7.578243694925555  21.58172826652785 7.784867821330903  C 21.588148533749784 7.9914919477362485  21.61061946902655 8.237617745366148  21.649141072358148 8.523245214220601  C 21.687662675689744 8.808872683075053  21.761495748741975 9.045882710422363  21.870640291514835 9.234275296262535  C 21.9797848342877 9.422667882102703  22.12424084678119 9.571558796718323  22.304008328995312 9.680948040109389  C 22.406732604546246 9.705256760862959  22.515877147319106 9.729565481616529  22.6314419573139 9.7538742023701  C 22.74700676730869 9.77818292312367  22.913933715078954 9.711333941051352  23.132222800624675 9.553327256153146  C 23.350511886170402 9.395320571254937  23.594482040603854 9.18565785475539  23.864133263925037 8.924339106654513  C 24.133784487246224 8.66302035855363  24.46763838278675 8.255849285931326  24.86569495054659 7.702825888787603  C 25.26375151830644 7.149802491643877  25.700329689397886 6.496505621391673  26.175429463820926 5.742935278030994  C 26.945861530452888 4.478881798845333  27.63283012319972 3.111516256457001  28.236335242061426 1.640838650865999  C 28.287697379836892 1.519295047098146  28.35190005205622 1.4129443938012765  28.428943258719418 1.3217866909753884  C 28.505986465382612 1.230628988149498  28.576609404823877 1.1668185961713773  28.640812077043204 1.1303555150410216  L 28.717855283706403 1.075660893345487  L 28.8141592920354 1.030082041932543  C 28.8141592920354 1.030082041932543  28.89762276592053 1.0118505013673662  29.064549713690784 0.9753874202370105  C 29.231476661461045 0.9389243391066548  29.35988200589971 0.9358857490124572  29.44976574700677 0.9662716499544222  L 34.9968766267569 0.9298085688240665  C 35.49765747006767 0.8690367669401367  35.908554572271385 0.8842297174111202  36.22956793336804 0.9753874202370105  C 36.5505812944647 1.0665451230628986  36.74960957834462 1.1668185961713773  36.82665278500781 1.276207839562442  Z " fill-rule="nonzero" fill="#000000" stroke="none" transform="matrix(1 0 0 1 835 1129 )" />
  </g>
</svg>