<?xml version="1.0" encoding="utf-8"?>
<svg version="1.1" xmlns:xlink="http://www.w3.org/1999/xlink" width="37px" height="35px" xmlns="http://www.w3.org/2000/svg">
  <g transform="matrix(1 0 0 1 -892 -1122 )">
    <path d="M 22.474609375 20.360142118863052  C 23.100911458333336 19.62909130060293  23.51844618055556 19.26356589147287  23.727213541666664 19.26356589147287  C 23.93598090277778 19.26356589147287  24.718858506944446 19.59517657192076  26.075846354166664 20.25839793281654  C 27.432834201388893 20.921619293712315  28.151475694444446 21.32105943152455  28.231770833333336 21.456718346253233  C 28.263888888888893 21.532084409991384  28.279947916666664 21.645133505598622  28.279947916666664 21.79586563307494  C 28.279947916666664 22.293281653746767  28.14344618055556 22.866063738156758  27.870442708333336 23.51421188630491  C 27.613498263888893 24.10206718346253  27.04340277777778 24.59571490094746  26.16015625 24.995155038759687  C 25.276909722222225 25.394595176571915  24.457899305555557 25.594315245478036  23.703125 25.594315245478036  C 22.787760416666668 25.594315245478036  21.26215277777778 25.12704565030146  19.126302083333336 24.192506459948323  C 17.552517361111114 23.51421188630491  16.1875 22.624892334194655  15.03125 21.524547803617573  C 13.875 20.424203273040483  12.686631944444446 19.029931093884578  11.466145833333332 17.34173126614987  C 10.309895833333332 15.728897502153313  9.739800347222223 14.266795865633076  9.755859375 12.955426356589147  L 9.755859375 12.774547803617569  C 9.804036458333334 11.402885443583115  10.398220486111112 10.212101636520238  11.538411458333332 9.202196382428939  C 11.923828125 8.870585701981048  12.341362847222223 8.704780361757104  12.791015625 8.704780361757104  C 12.887369791666668 8.704780361757104  13.031901041666668 8.71608527131783  13.224609375 8.738695090439276  C 13.417317708333332 8.761304909560724  13.569878472222223 8.772609819121445  13.682291666666668 8.772609819121445  C 13.987413194444446 8.772609819121445  14.2001953125 8.821597760551247  14.320638020833332 8.919573643410853  C 14.441080729166668 9.017549526270455  14.565538194444446 9.224806201550388  14.694010416666668 9.541343669250645  C 14.82248263888889 9.84280792420327  15.087456597222223 10.506029285099048  15.488932291666668 11.531007751937986  C 15.890407986111112 12.555986218776916  16.091145833333332 13.12123169681309  16.091145833333332 13.226744186046512  C 16.091145833333332 13.543281653746767  15.814127604166668 13.97663652024117  15.260091145833332 14.526808785529715  C 14.7060546875 15.076981050818256  14.429036458333332 15.427433247200687  14.429036458333332 15.578165374677004  C 14.429036458333332 15.683677863910422  14.46918402777778 15.796726959517654  14.549479166666668 15.917312661498707  C 15.095486111111112 17.017657192075795  15.91449652777778 18.05017226528854  17.006510416666668 19.014857881136948  C 17.905815972222225 19.813738156761413  19.118272569444446 20.574935400516797  20.643880208333336 21.2984496124031  C 20.836588541666664 21.403962101636516  21.01323784722222 21.456718346253233  21.173828125 21.456718346253233  C 21.414713541666668 21.456718346253233  21.848307291666668 21.091192937123168  22.474609375 20.360142118863052  Z M 10.526692708333332 28.895348837209305  C 13.064019097222223 30.462962962962962  15.834201388888888 31.24677002583979  18.837239583333336 31.24677002583979  C 20.876736111111114 31.24677002583979  22.83192274305556 30.869939707149005  24.702799479166664 30.11627906976744  C 26.57367621527778 29.362618432385876  28.18359375 28.352713178294575  29.532552083333336 27.08656330749354  C 30.881510416666664 25.820413436692508  31.95746527777778 24.30932385874246  32.760416666666664 22.553294573643413  C 33.56336805555556 20.797265288544356  33.96484375 18.962101636520238  33.96484375 17.047803617571063  C 33.96484375 15.133505598621877  33.56336805555556 13.298341946597759  32.760416666666664 11.542312661498707  C 31.95746527777778 9.786283376399654  30.881510416666664 8.275193798449612  29.532552083333336 7.0090439276485785  C 28.18359375 5.742894056847545  26.57367621527778 4.732988802756243  24.702799479166664 3.9793281653746777  C 22.83192274305556 3.2256675279931053  20.876736111111114 2.8488372093023266  18.837239583333336 2.8488372093023266  C 16.797743055555557 2.8488372093023266  14.842556423611112 3.2256675279931053  12.9716796875 3.9793281653746777  C 11.10080295138889 4.732988802756243  9.490885416666668 5.742894056847545  8.141927083333334 7.0090439276485785  C 6.79296875 8.275193798449612  5.717013888888889 9.786283376399654  4.9140625 11.542312661498707  C 4.111111111111112 13.298341946597759  3.709635416666667 15.133505598621877  3.709635416666667 17.047803617571063  C 3.709635416666667 20.107665805340222  4.673177083333334 22.881136950904395  6.600260416666666 25.368217054263564  L 4.697265625 30.636304909560724  L 10.526692708333332 28.895348837209305  Z M 11.791341145833332 1.3565891472868201  C 14.031575520833332 0.4521963824289388  16.380208333333332 0  18.837239583333336 0  C 21.294270833333336 0  23.642903645833336 0.4521963824289388  25.883138020833336 1.3565891472868201  C 28.123372395833336 2.2609819121447017  30.054470486111114 3.4743755383290242  31.676432291666664 4.996770025839792  C 33.29839409722223 6.519164513350559  34.591145833333336 8.331718346253233  35.5546875 10.434431524547806  C 36.518229166666664 12.537144702842374  37 14.741602067183461  37 17.047803617571063  C 37 19.354005167958654  36.518229166666664 21.558462532299743  35.5546875 23.661175710594314  C 34.591145833333336 25.76388888888889  33.29839409722223 27.576442721791555  31.676432291666664 29.098837209302328  C 30.054470486111114 30.62123169681309  28.123372395833336 31.834625322997418  25.883138020833336 32.7390180878553  C 23.642903645833336 33.64341085271318  21.294270833333336 34.09560723514212  18.837239583333336 34.09560723514212  C 15.705729166666668 34.09560723514212  12.774956597222223 33.387166236003445  10.044921875 31.970284237726098  L 0 35  L 3.276041666666667 25.843023255813954  C 1.5416666666666665 23.159991386735573  0.6744791666666667 20.228251507321275  0.6744791666666667 17.047803617571063  C 0.6744791666666667 14.741602067183461  1.15625 12.537144702842374  2.1197916666666665 10.434431524547806  C 3.083333333333333 8.331718346253233  4.376085069444445 6.519164513350559  5.998046875 4.996770025839792  C 7.620008680555556 3.4743755383290242  9.551106770833332 2.2609819121447017  11.791341145833332 1.3565891472868201  Z " fill-rule="nonzero" fill="#000000" stroke="none" transform="matrix(1 0 0 1 892 1122 )" />
  </g>
</svg>