<?xml version="1.0" encoding="utf-8"?>
<svg version="1.1" xmlns:xlink="http://www.w3.org/1999/xlink" width="50px" height="50px" xmlns="http://www.w3.org/2000/svg">
  <g transform="matrix(1 0 0 1 -730 -6 )">
    <path d="M 755 7  C 768.44 7  779 17.56  779 31  C 779 44.44  768.44 55  755 55  C 741.56 55  731 44.44  731 31  C 731 17.56  741.56 7  755 7  Z " fill-rule="nonzero" fill="#ffffff" stroke="none" />
    <path d="M 755 7  C 768.44 7  779 17.56  779 31  C 779 44.44  768.44 55  755 55  C 741.56 55  731 44.44  731 31  C 731 17.56  741.56 7  755 7  Z " stroke-width="2" stroke="#797979" fill="none" />
  </g>
</svg>